<svg width="22" height="11" viewBox="0 0 22 11" fill="none" xmlns="http://www.w3.org/2000/svg">
<path d="M14.9667 8.16675H1.30606C0.860886 8.16675 0.5 8.66297 0.5 9.27508V9.39175C0.5 10.0039 0.860886 10.5001 1.30606 10.5001H14.9667C15.4118 10.5001 15.7727 10.0039 15.7727 9.39175V9.27508C15.7727 8.66297 15.4118 8.16675 14.9667 8.16675Z" fill="white"/>
<path d="M20.3917 0H1.60833C0.996218 0 0.5 0.496218 0.5 1.10833V1.225C0.5 1.83712 0.996218 2.33333 1.60833 2.33333H20.3917C21.0038 2.33333 21.5 1.83712 21.5 1.225V1.10833C21.5 0.496218 21.0038 0 20.3917 0Z" fill="white"/>
</svg>
