<svg width="29" height="35" viewBox="0 0 29 35" fill="none" xmlns="http://www.w3.org/2000/svg">
<path d="M27.5058 0.476562H9.54528C8.81328 0.476562 8.22266 1.07032 8.22266 1.79917V12.4398C8.22266 13.1718 8.81643 13.7624 9.54528 13.7624H11.5276V16.7092C11.5276 17.5889 12.5895 18.0287 13.2115 17.4066L16.8558 13.7624H27.5058C28.2378 13.7624 28.8284 13.1686 28.8284 12.4398V1.79917C28.8284 1.06718 28.2346 0.476562 27.5058 0.476562Z" fill="url(#paint0_linear_61_526)"/>
<g filter="url(#filter0_b_61_526)">
<path d="M18.1627 5.30554H3.46945C1.90494 5.30554 0.635742 6.57474 0.635742 8.13612V31.8552C0.635742 33.4197 1.90494 34.6858 3.46945 34.6858H18.1627C19.7272 34.6858 20.9965 33.4197 20.9965 31.8552V8.13612C20.9965 6.57474 19.7272 5.30554 18.1627 5.30554ZM17.0192 32.65C16.9029 32.7663 16.7396 32.8385 16.5637 32.8385H5.06853C4.71353 32.8385 4.42451 32.5526 4.42451 32.1976C4.42451 32.0217 4.49676 31.8583 4.613 31.7421C4.72924 31.6258 4.88946 31.5536 5.06853 31.5536H16.5637C16.9187 31.5536 17.2077 31.8426 17.2077 32.1976C17.2077 32.3736 17.1354 32.5369 17.0192 32.65Z" fill="url(#paint1_linear_61_526)"/>
<path d="M3.46945 6.30554H18.1627C19.1757 6.30554 19.9965 7.12775 19.9965 8.13612V31.8552C19.9965 32.866 19.1764 33.6858 18.1627 33.6858H17.2554C17.4294 33.6051 17.5873 33.495 17.7215 33.3619C18.0271 33.0619 18.2077 32.6426 18.2077 32.1976C18.2077 31.2903 17.4709 30.5536 16.5637 30.5536H5.06853C4.61303 30.5536 4.20158 30.7393 3.90589 31.035C3.60831 31.3326 3.42451 31.7478 3.42451 32.1976C3.42451 32.8609 3.81611 33.4259 4.37543 33.6858H3.46945C2.45578 33.6858 1.63574 32.866 1.63574 31.8552V8.13612C1.63574 7.12775 2.4565 6.30554 3.46945 6.30554Z" stroke="url(#paint2_linear_61_526)" stroke-width="2"/>
</g>
<path d="M17.2077 32.1971C17.2077 32.373 17.1355 32.5364 17.0192 32.6495C16.903 32.7657 16.7396 32.838 16.5637 32.838H5.06858C4.71358 32.838 4.42456 32.5521 4.42456 32.1971C4.42456 32.0212 4.49681 31.8578 4.61305 31.7416C4.72929 31.6253 4.88951 31.5531 5.06858 31.5531H16.5637C16.9187 31.5531 17.2077 31.8421 17.2077 32.1971Z" fill="white"/>
<defs>
<filter id="filter0_b_61_526" x="-17.3643" y="-12.6945" width="56.3606" height="65.3802" filterUnits="userSpaceOnUse" color-interpolation-filters="sRGB">
<feFlood flood-opacity="0" result="BackgroundImageFix"/>
<feGaussianBlur in="BackgroundImageFix" stdDeviation="9"/>
<feComposite in2="SourceAlpha" operator="in" result="effect1_backgroundBlur_61_526"/>
<feBlend mode="normal" in="SourceGraphic" in2="effect1_backgroundBlur_61_526" result="shape"/>
</filter>
<linearGradient id="paint0_linear_61_526" x1="10.9396" y1="0.474383" x2="12.4255" y2="16.2842" gradientUnits="userSpaceOnUse">
<stop stop-color="white"/>
<stop offset="0.4375" stop-color="#AAE33E"/>
<stop offset="1" stop-color="#FB7F35"/>
</linearGradient>
<linearGradient id="paint1_linear_61_526" x1="1.78522" y1="33.0271" x2="26.1887" y2="16.1153" gradientUnits="userSpaceOnUse">
<stop stop-color="white" stop-opacity="0.2"/>
<stop offset="1" stop-color="white" stop-opacity="0.49"/>
</linearGradient>
<linearGradient id="paint2_linear_61_526" x1="2.07298" y1="7.61624" x2="25.6211" y2="25.065" gradientUnits="userSpaceOnUse">
<stop stop-color="white"/>
<stop offset="1" stop-color="white" stop-opacity="0"/>
</linearGradient>
</defs>
</svg>
