<svg width="36" height="33" viewBox="0 0 36 33" fill="none" xmlns="http://www.w3.org/2000/svg">
<path d="M28.2645 15.2821C32.4844 15.2821 35.9052 11.8612 35.9052 7.64137C35.9052 3.42151 32.4844 0.000640869 28.2645 0.000640869C24.0446 0.000640869 20.6238 3.42151 20.6238 7.64137C20.6238 11.8612 24.0446 15.2821 28.2645 15.2821Z" fill="url(#paint0_linear_61_515)"/>
<path d="M7.64073 15.2821C11.8606 15.2821 15.2815 11.8612 15.2815 7.64137C15.2815 3.42151 11.8606 0.000640869 7.64073 0.000640869C3.42087 0.000640869 0 3.42151 0 7.64137C0 11.8612 3.42087 15.2821 7.64073 15.2821Z" fill="url(#paint1_linear_61_515)"/>
<g filter="url(#filter0_b_61_515)">
<path d="M27.8225 25.8945C30.2382 23.4127 31.7285 20.0234 31.7285 16.2857C31.7285 8.67503 25.56 2.50656 17.9493 2.50656C10.3386 2.50656 4.17017 8.67503 4.17017 16.2857C4.17017 20.0234 5.66045 23.4127 8.07616 25.8945L6.68803 28.7999C6.13819 29.9507 6.62493 31.3298 7.7757 31.8827C8.92647 32.4325 10.3056 31.9457 10.8584 30.795L11.88 28.6587C13.7128 29.5601 15.771 30.0679 17.9493 30.0679C20.1277 30.0679 22.1858 29.5601 24.0186 28.6587L25.0402 30.795C25.59 31.9457 26.9692 32.4325 28.1229 31.8827C29.2737 31.3328 29.7604 29.9537 29.2106 28.7999L27.8225 25.8945Z" fill="url(#paint2_linear_61_515)"/>
<path d="M27.1059 25.197L26.6196 25.6965L26.9202 26.3256L28.3079 29.2301C28.3079 29.2302 28.3079 29.2303 28.308 29.2304C28.6209 29.8873 28.343 30.6689 27.6922 30.9802C27.0351 31.293 26.2535 31.0149 25.9425 30.3639L25.9423 30.3636L24.9208 28.2273L24.4846 27.3151L23.5773 27.7613C21.878 28.5971 19.9704 29.0679 17.9493 29.0679C15.9282 29.0679 14.0206 28.5971 12.3213 27.7613L11.414 27.3151L10.9778 28.2273L9.95706 30.3619C9.95695 30.3622 9.95685 30.3624 9.95674 30.3626C9.64215 31.0165 8.85959 31.2915 8.20789 30.9809C7.55375 30.666 7.27886 29.8829 7.59033 29.231L7.59034 29.231L8.97847 26.3256L9.279 25.6965L8.79275 25.197C6.55111 22.894 5.17017 19.7521 5.17017 16.2857C5.17017 9.22731 10.8909 3.50656 17.9493 3.50656C25.0077 3.50656 30.7285 9.22731 30.7285 16.2857C30.7285 19.7521 29.3475 22.894 27.1059 25.197Z" stroke="url(#paint3_linear_61_515)" stroke-width="2"/>
</g>
<path d="M19.076 7.92453C19.076 7.29396 18.5648 6.78278 17.9342 6.78278C17.3037 6.78278 16.7925 7.29396 16.7925 7.92453V16.5087C16.7925 17.1393 17.3037 17.6504 17.9342 17.6504C18.5648 17.6504 19.076 17.1393 19.076 16.5087V7.92453Z" fill="white"/>
<path d="M23.2401 17.6542C23.8707 17.6542 24.3818 17.143 24.3818 16.5124C24.3818 15.8818 23.8707 15.3706 23.2401 15.3706H17.9369C17.3064 15.3706 16.7952 15.8818 16.7952 16.5124C16.7952 17.143 17.3064 17.6542 17.9369 17.6542H23.2401Z" fill="white"/>
<defs>
<filter id="filter0_b_61_515" x="-13.8298" y="-15.4934" width="63.5583" height="65.6023" filterUnits="userSpaceOnUse" color-interpolation-filters="sRGB">
<feFlood flood-opacity="0" result="BackgroundImageFix"/>
<feGaussianBlur in="BackgroundImageFix" stdDeviation="9"/>
<feComposite in2="SourceAlpha" operator="in" result="effect1_backgroundBlur_61_515"/>
<feBlend mode="normal" in="SourceGraphic" in2="effect1_backgroundBlur_61_515" result="shape"/>
</filter>
<linearGradient id="paint0_linear_61_515" x1="22.6387" y1="-0.00129324" x2="24.2104" y2="13.9748" gradientUnits="userSpaceOnUse">
<stop stop-color="white"/>
<stop offset="0.4375" stop-color="#AAE33E"/>
<stop offset="1" stop-color="#FB7F35"/>
</linearGradient>
<linearGradient id="paint1_linear_61_515" x1="2.01489" y1="-0.00129324" x2="3.58665" y2="13.9748" gradientUnits="userSpaceOnUse">
<stop stop-color="white"/>
<stop offset="0.4375" stop-color="#AAE33E"/>
<stop offset="1" stop-color="#FB7F35"/>
</linearGradient>
<linearGradient id="paint2_linear_61_515" x1="5.72599" y1="30.4377" x2="31.9188" y2="6.05347" gradientUnits="userSpaceOnUse">
<stop stop-color="white" stop-opacity="0.2"/>
<stop offset="1" stop-color="white" stop-opacity="0.49"/>
</linearGradient>
<linearGradient id="paint3_linear_61_515" x1="6.11547" y1="4.83473" x2="30.9154" y2="29.5206" gradientUnits="userSpaceOnUse">
<stop stop-color="white"/>
<stop offset="1" stop-color="white" stop-opacity="0"/>
</linearGradient>
</defs>
</svg>
